P3
#Created with GIMP
67 80
255
0 0 0 0 0 0 0 0 0 0 0 0 0 0 0 0 0 0 0 0 0 0 0 0 0 0 0 0 0 0 0 0 0 0 0 0 0 0 0 0 0 0 0 0 0 0 0 0 0 0 0 0 0 0 0 0 0 0 0 0 0 0 0 0 0 0 0 0 0 0 0 0 0 0 0 0 0 0 0 0 0 0 0 0 0 0 0 0 0 0 20 21 19 59 60 59 99 100 98 99 100 98 43 44 43 20 21 19 0 0 0 0 0 0 0 0 0 0 0 0 0 0 0 0 0 0 0 0 0 0 0 0 0 0 0 0 0 0 0 0 0 0 0 0 0 0 0 0 0 0 0 0 0 0 0 0 0 0 0 0 0 0 0 0 0 0 0 0 0 0 0 0 0 0 0 0 0 0 0 0 0 0 0 0 0 0 0 0 0 0 0 0 0 0 0 0 0 0 0 0 0 
0 0 0 0 0 0 0 0 0 0 0 0 0 0 0 0 0 0 0 0 0 0 0 0 0 0 0 0 0 0 0 0 0 0 0 0 0 0 0 0 0 0 0 0 0 0 0 0 0 0 0 0 0 0 0 0 0 0 0 0 0 0 0 0 0 0 0 0 0 0 0 0 0 0 0 0 0 0 0 0 0 59 60 59 83 84 83 87 88 86 83 84 83 43 44 43 28 29 26 28 29 26 51 52 50 75 76 74 83 84 83 83 83 77 43 44 43 0 0 0 0 0 0 0 0 0 0 0 0 0 0 0 0 0 0 0 0 0 0 0 0 0 0 0 0 0 0 0 0 0 0 0 0 0 0 0 0 0 0 0 0 0 0 0 0 0 0 0 0 0 0 0 0 0 0 0 0 0 0 0 0 0 0 0 0 0 0 0 0 0 0 0 0 0 0 0 0 0 0 0 0 
0 0 0 0 0 0 0 0 0 0 0 0 0 0 0 0 0 0 0 0 0 0 0 0 0 0 0 0 0 0 0 0 0 0 0 0 0 0 0 0 0 0 0 0 0 0 0 0 0 0 0 0 0 0 0 0 0 0 0 0 0 0 0 0 0 0 0 0 0 0 0 0 0 0 0 43 44 43 91 92 91 59 60 59 0 0 0 0 0 0 0 0 0 0 0 0 0 0 0 0 0 0 0 0 0 0 0 0 0 0 0 6 9 6 75 76 74 75 76 74 11 13 10 0 0 0 0 0 0 0 0 0 0 0 0 0 0 0 0 0 0 0 0 0 0 0 0 0 0 0 0 0 0 0 0 0 0 0 0 0 0 0 0 0 0 0 0 0 0 0 0 0 0 0 0 0 0 0 0 0 0 0 0 0 0 0 0 0 0 0 0 0 0 0 0 0 0 0 0 0 0 
0 0 0 0 0 0 0 0 0 0 0 0 0 0 0 0 0 0 0 0 0 0 0 0 0 0 0 0 0 0 0 0 0 0 0 0 0 0 0 0 0 0 0 0 0 0 0 0 0 0 0 0 0 0 0 0 0 0 0 0 0 0 0 0 0 0 0 0 0 0 0 0 28 29 26 75 76 74 6 9 6 0 0 0 0 0 0 0 0 0 0 0 0 0 0 0 0 0 0 0 0 0 0 0 0 8 10 6 28 29 26 43 44 43 11 13 10 20 21 19 87 88 86 40 41 37 0 0 0 0 0 0 0 0 0 0 0 0 0 0 0 0 0 0 0 0 0 0 0 0 0 0 0 0 0 0 0 0 0 0 0 0 0 0 0 0 0 0 0 0 0 0 0 0 0 0 0 0 0 0 0 0 0 0 0 0 0 0 0 0 0 0 0 0 0 0 0 0 0 0 0 
0 0 0 0 0 0 0 0 0 0 0 0 0 0 0 0 0 0 0 0 0 0 0 0 0 0 0 0 0 0 0 0 0 0 0 0 0 0 0 0 0 0 0 0 0 0 0 0 0 0 0 0 0 0 0 0 0 0 0 0 0 0 0 0 0 0 0 0 0 35 36 34 87 88 86 0 0 0 0 0 0 0 0 0 0 0 0 0 0 0 0 0 0 0 0 0 0 0 0 0 0 0 0 0 0 0 0 0 40 41 37 99 100 98 89 89 85 31 33 30 0 0 0 79 80 79 56 56 53 0 0 0 0 0 0 0 0 0 0 0 0 0 0 0 0 0 0 0 0 0 0 0 0 0 0 0 0 0 0 0 0 0 0 0 0 0 0 0 0 0 0 0 0 0 0 0 0 0 0 0 0 0 0 0 0 0 0 0 0 0 0 0 0 0 0 0 0 0 0 0 0 
0 0 0 0 0 0 0 0 0 0 0 0 0 0 0 0 0 0 0 0 0 0 0 0 0 0 0 0 0 0 0 0 0 0 0 0 0 0 0 0 0 0 0 0 0 0 0 0 0 0 0 0 0 0 0 0 0 0 0 0 0 0 0 0 0 0 0 0 0 83 84 83 8 10 6 0 0 0 0 0 0 0 0 0 0 0 0 0 0 0 0 0 0 0 0 0 0 0 0 0 0 0 0 0 0 0 0 0 28 29 26 95 96 95 148 149 147 103 104 102 28 29 26 0 0 0 83 84 83 43 44 43 0 0 0 0 0 0 0 0 0 0 0 0 0 0 0 0 0 0 0 0 0 0 0 0 0 0 0 0 0 0 0 0 0 0 0 0 0 0 0 0 0 0 0 0 0 0 0 0 0 0 0 0 0 0 0 0 0 0 0 0 0 0 0 0 0 0 0 0 0 
0 0 0 0 0 0 0 0 0 0 0 0 0 0 0 0 0 0 0 0 0 0 0 0 0 0 0 0 0 0 0 0 0 0 0 0 0 0 0 0 0 0 0 0 0 0 0 0 0 0 0 0 0 0 0 0 0 0 0 0 0 0 0 0 0 0 56 56 53 73 74 69 0 0 0 0 0 0 0 0 0 0 0 0 0 0 0 0 0 0 0 0 0 0 0 0 0 0 0 0 0 0 0 0 0 0 0 0 40 41 37 87 88 86 108 109 107 87 88 86 43 44 43 6 9 6 8 10 6 83 84 83 0 0 0 0 0 0 0 0 0 0 0 0 0 0 0 0 0 0 0 0 0 0 0 0 0 0 0 0 0 0 0 0 0 0 0 0 0 0 0 0 0 0 0 0 0 0 0 0 0 0 0 0 0 0 0 0 0 0 0 0 0 0 0 0 0 0 0 0 0 
0 0 0 0 0 0 0 0 0 0 0 0 0 0 0 0 0 0 0 0 0 0 0 0 0 0 0 0 0 0 0 0 0 0 0 0 0 0 0 0 0 0 0 0 0 0 0 0 0 0 0 0 0 0 0 0 0 0 0 0 0 0 0 0 0 0 83 84 83 0 0 0 0 0 0 0 0 0 0 0 0 0 0 0 0 0 0 0 0 0 0 0 0 0 0 0 0 0 0 0 0 0 0 0 0 0 0 0 35 36 34 59 60 59 47 48 47 20 21 19 20 21 19 11 13 10 0 0 0 75 76 74 59 60 59 0 0 0 0 0 0 0 0 0 0 0 0 0 0 0 0 0 0 0 0 0 0 0 0 0 0 0 0 0 0 0 0 0 0 0 0 0 0 0 0 0 0 0 0 0 0 0 0 0 0 0 0 0 0 0 0 0 0 0 0 0 0 0 0 0 0 
0 0 0 0 0 0 0 0 0 0 0 0 0 0 0 0 0 0 0 0 0 0 0 0 0 0 0 0 0 0 0 0 0 0 0 0 0 0 0 0 0 0 0 0 0 0 0 0 0 0 0 0 0 0 0 0 0 0 0 0 0 0 0 0 0 0 87 88 86 0 0 0 0 0 0 0 0 0 0 0 0 0 0 0 0 0 0 0 0 0 0 0 0 0 0 0 0 0 0 0 0 0 0 0 0 6 9 6 16 18 15 16 18 15 11 13 10 0 0 0 0 0 0 0 0 0 0 0 0 0 0 0 83 84 83 0 0 0 0 0 0 0 0 0 0 0 0 0 0 0 0 0 0 0 0 0 0 0 0 0 0 0 0 0 0 0 0 0 0 0 0 0 0 0 0 0 0 0 0 0 0 0 0 0 0 0 0 0 0 0 0 0 0 0 0 0 0 0 0 0 0 
0 0 0 0 0 0 0 0 0 0 0 0 0 0 0 0 0 0 0 0 0 0 0 0 0 0 0 0 0 0 0 0 0 0 0 0 0 0 0 0 0 0 0 0 0 0 0 0 0 0 0 0 0 0 0 0 0 0 0 0 0 0 0 0 0 0 75 76 74 0 0 0 14 17 14 24 25 22 24 25 22 14 17 14 0 0 0 0 0 0 0 0 0 0 0 0 0 0 0 0 0 0 0 0 0 8 10 6 14 17 14 6 9 6 0 0 0 0 0 0 0 0 0 0 0 0 0 0 0 0 0 0 83 84 83 0 0 0 0 0 0 0 0 0 0 0 0 0 0 0 0 0 0 0 0 0 0 0 0 0 0 0 0 0 0 0 0 0 0 0 0 0 0 0 0 0 0 0 0 0 0 0 0 0 0 0 0 0 0 0 0 0 0 0 0 0 0 0 0 0 0 
0 0 0 0 0 0 0 0 0 0 0 0 0 0 0 0 0 0 0 0 0 0 0 0 0 0 0 0 0 0 0 0 0 0 0 0 0 0 0 0 0 0 0 0 0 0 0 0 0 0 0 0 0 0 0 0 0 0 0 0 0 0 0 0 0 0 99 100 98 0 0 0 16 18 15 43 44 43 63 65 63 59 60 59 28 29 26 6 9 6 0 0 0 0 0 0 0 0 0 0 0 0 0 0 0 11 13 10 40 41 37 59 60 59 47 48 47 6 9 6 0 0 0 0 0 0 0 0 0 0 0 0 43 44 43 59 60 59 0 0 0 0 0 0 0 0 0 0 0 0 0 0 0 0 0 0 0 0 0 0 0 0 0 0 0 0 0 0 0 0 0 0 0 0 0 0 0 0 0 0 0 0 0 0 0 0 0 0 0 0 0 0 0 0 0 0 0 0 0 0 0 
0 0 0 0 0 0 0 0 0 0 0 0 0 0 0 0 0 0 0 0 0 0 0 0 0 0 0 0 0 0 0 0 0 0 0 0 0 0 0 0 0 0 0 0 0 0 0 0 0 0 0 0 0 0 0 0 0 0 0 0 0 0 0 0 0 0 83 83 77 0 0 0 6 9 6 14 17 14 35 36 34 67 66 60 73 74 69 33 33 30 0 0 0 0 0 0 0 0 0 0 0 0 0 0 0 43 44 43 59 60 59 40 41 37 59 60 59 56 56 53 6 9 6 0 0 0 0 0 0 0 0 0 0 0 0 79 80 79 0 0 0 0 0 0 0 0 0 0 0 0 0 0 0 0 0 0 0 0 0 0 0 0 0 0 0 0 0 0 0 0 0 0 0 0 0 0 0 0 0 0 0 0 0 0 0 0 0 0 0 0 0 0 0 0 0 0 0 0 0 0 0 
0 0 0 0 0 0 0 0 0 0 0 0 0 0 0 0 0 0 0 0 0 0 0 0 0 0 0 0 0 0 0 0 0 0 0 0 0 0 0 0 0 0 0 0 0 0 0 0 0 0 0 0 0 0 0 0 0 0 0 0 0 0 0 0 0 0 75 76 74 0 0 0 8 10 6 91 92 91 108 109 107 75 76 74 40 41 37 35 36 34 6 9 6 0 0 0 0 0 0 28 29 26 108 109 107 135 136 135 135 136 135 121 122 120 67 68 67 40 41 37 28 29 26 0 0 0 0 0 0 0 0 0 0 0 0 83 84 83 0 0 0 0 0 0 0 0 0 0 0 0 0 0 0 0 0 0 0 0 0 0 0 0 0 0 0 0 0 0 0 0 0 0 0 0 0 0 0 0 0 0 0 0 0 0 0 0 0 0 0 0 0 0 0 0 0 0 0 0 0 0 0 
0 0 0 0 0 0 0 0 0 0 0 0 0 0 0 0 0 0 0 0 0 0 0 0 0 0 0 0 0 0 0 0 0 0 0 0 0 0 0 0 0 0 0 0 0 0 0 0 0 0 0 0 0 0 0 0 0 0 0 0 0 0 0 0 0 0 83 84 83 0 0 0 91 92 91 148 149 147 166 167 166 158 160 158 99 100 98 6 9 6 0 0 0 0 0 0 6 9 6 121 122 120 166 167 166 183 182 184 179 179 179 155 155 154 131 132 131 51 52 50 20 21 19 0 0 0 0 0 0 0 0 0 0 0 0 51 52 50 0 0 0 0 0 0 0 0 0 0 0 0 0 0 0 0 0 0 0 0 0 0 0 0 0 0 0 0 0 0 0 0 0 0 0 0 0 0 0 0 0 0 0 0 0 0 0 0 0 0 0 0 0 0 0 0 0 0 0 0 0 0 0 
0 0 0 0 0 0 0 0 0 0 0 0 0 0 0 0 0 0 0 0 0 0 0 0 0 0 0 0 0 0 0 0 0 0 0 0 0 0 0 0 0 0 0 0 0 0 0 0 0 0 0 0 0 0 0 0 0 0 0 0 0 0 0 0 0 0 91 92 91 0 0 0 155 155 154 200 199 201 208 209 207 222 225 221 187 188 186 28 29 26 0 0 0 0 0 0 83 84 83 204 204 204 235 234 236 235 234 236 215 217 213 215 217 213 183 182 184 121 122 120 0 0 0 0 0 0 0 0 0 0 0 0 0 0 0 103 104 102 0 0 0 0 0 0 0 0 0 0 0 0 0 0 0 0 0 0 0 0 0 0 0 0 0 0 0 0 0 0 0 0 0 0 0 0 0 0 0 0 0 0 0 0 0 0 0 0 0 0 0 0 0 0 0 0 0 0 0 0 0 0 0 
0 0 0 0 0 0 0 0 0 0 0 0 0 0 0 0 0 0 0 0 0 0 0 0 0 0 0 0 0 0 0 0 0 0 0 0 0 0 0 0 0 0 0 0 0 0 0 0 0 0 0 0 0 0 0 0 0 0 0 0 0 0 0 0 0 0 103 104 102 6 9 6 204 204 204 121 122 120 31 33 30 166 167 166 230 232 229 99 100 98 0 0 0 0 0 0 126 128 126 228 227 228 222 225 221 75 76 74 87 88 86 148 149 147 224 227 223 183 182 184 11 13 10 0 0 0 0 0 0 0 0 0 0 0 0 75 76 74 0 0 0 0 0 0 0 0 0 0 0 0 0 0 0 0 0 0 0 0 0 0 0 0 0 0 0 0 0 0 0 0 0 0 0 0 0 0 0 0 0 0 0 0 0 0 0 0 0 0 0 0 0 0 0 0 0 0 0 0 0 0 0 
0 0 0 0 0 0 0 0 0 0 0 0 0 0 0 0 0 0 0 0 0 0 0 0 0 0 0 0 0 0 0 0 0 0 0 0 0 0 0 0 0 0 0 0 0 0 0 0 0 0 0 0 0 0 0 0 0 0 0 0 0 0 0 0 0 0 43 44 43 6 9 6 200 199 201 31 33 30 73 74 69 99 100 98 235 234 236 135 133 125 43 44 43 47 48 47 135 136 135 230 232 229 171 171 173 6 9 6 47 48 47 67 68 67 212 212 212 216 218 215 56 56 53 0 0 0 0 0 0 0 0 0 0 0 0 56 56 53 0 0 0 0 0 0 0 0 0 0 0 0 0 0 0 0 0 0 0 0 0 0 0 0 0 0 0 0 0 0 0 0 0 0 0 0 0 0 0 0 0 0 0 0 0 0 0 0 0 0 0 0 0 0 0 0 0 0 0 0 0 0 0 
0 0 0 0 0 0 0 0 0 0 0 0 0 0 0 0 0 0 0 0 0 0 0 0 43 44 43 135 136 135 145 143 147 59 60 59 0 0 0 0 0 0 0 0 0 0 0 0 0 0 0 0 0 0 0 0 0 0 0 0 0 0 0 0 0 0 67 68 67 0 0 0 196 196 197 56 56 53 20 21 19 56 56 53 233 235 231 121 122 120 58 49 19 68 66 52 99 100 98 238 241 237 158 160 158 0 0 0 11 13 10 24 25 22 196 196 197 219 218 220 67 68 67 0 0 0 0 0 0 0 0 0 0 0 0 99 100 98 0 0 0 0 0 0 0 0 0 0 0 0 0 0 0 0 0 0 0 0 0 0 0 0 0 0 0 0 0 0 0 0 0 0 0 0 0 0 0 0 0 0 0 0 0 0 0 0 0 0 0 0 0 0 0 0 0 0 0 0 0 0 0 
0 0 0 0 0 0 0 0 0 0 0 0 0 0 0 0 0 0 91 92 91 174 173 177 225 222 227 237 235 241 235 234 236 171 171 173 11 13 10 0 0 0 0 0 0 0 0 0 0 0 0 0 0 0 0 0 0 0 0 0 0 0 0 0 0 0 91 92 91 0 0 0 179 179 179 155 155 154 0 0 0 69 60 29 209 193 153 231 193 58 231 193 58 231 193 58 217 180 56 231 216 180 183 182 184 0 0 0 0 0 0 67 68 67 222 225 221 212 212 212 35 36 34 0 0 0 0 0 0 0 0 0 0 0 0 73 74 69 0 0 0 0 0 0 0 0 0 0 0 0 0 0 0 0 0 0 0 0 0 0 0 0 0 0 0 0 0 0 0 0 0 0 0 0 0 0 0 0 0 0 0 0 0 0 0 0 0 0 0 0 0 0 0 0 0 0 0 0 0 0 0 
0 0 0 0 0 0 0 0 0 35 36 34 135 136 135 204 204 204 235 234 236 237 235 241 235 234 236 235 234 236 235 234 236 217 215 219 83 84 83 0 0 0 0 0 0 0 0 0 0 0 0 0 0 0 0 0 0 0 0 0 0 0 0 0 0 0 67 68 67 0 0 0 108 109 107 230 232 229 181 169 140 199 166 56 217 180 56 231 193 58 236 195 59 231 193 58 217 180 56 226 190 67 214 182 89 157 132 56 157 145 106 222 225 221 243 245 242 155 155 154 0 0 0 0 0 0 0 0 0 0 0 0 0 0 0 56 56 53 43 44 43 0 0 0 0 0 0 0 0 0 0 0 0 0 0 0 0 0 0 0 0 0 0 0 0 0 0 0 0 0 0 0 0 0 0 0 0 0 0 0 0 0 0 0 0 0 0 0 0 0 0 0 0 0 0 0 0 0 0 0 0 
20 21 19 83 84 83 166 167 166 219 218 220 237 235 241 237 235 241 235 234 236 235 234 236 235 234 236 235 234 236 235 234 236 235 234 236 155 155 154 0 0 0 0 0 0 0 0 0 0 0 0 0 0 0 0 0 0 0 0 0 0 0 0 0 0 0 67 68 67 0 0 0 0 0 0 181 169 140 205 172 82 214 170 45 217 180 56 236 195 59 236 195 59 236 195 59 236 195 59 231 193 58 228 188 56 216 182 70 216 182 70 220 193 104 209 193 153 58 49 19 0 0 0 0 0 0 0 0 0 0 0 0 0 0 0 59 60 59 67 68 67 0 0 0 0 0 0 0 0 0 0 0 0 0 0 0 0 0 0 0 0 0 0 0 0 0 0 0 0 0 0 0 0 0 0 0 0 0 0 0 0 0 0 0 0 0 0 0 0 0 0 0 0 0 0 0 0 0 0 0 0 
40 41 37 217 215 219 233 230 235 219 218 220 228 227 228 237 235 241 235 234 236 235 234 236 235 234 236 235 234 236 235 234 236 235 234 236 204 204 204 67 68 67 0 0 0 0 0 0 0 0 0 0 0 0 0 0 0 0 0 0 0 0 0 0 0 0 95 96 95 0 0 0 107 88 22 199 159 51 204 162 46 214 170 45 228 188 56 236 195 59 236 195 59 236 195 59 232 199 88 232 196 73 228 188 56 228 188 56 228 188 56 228 188 56 216 182 70 199 166 56 31 24 6 0 0 0 0 0 0 0 0 0 0 0 0 14 17 14 83 84 83 0 0 0 0 0 0 0 0 0 0 0 0 0 0 0 0 0 0 0 0 0 0 0 0 0 0 0 0 0 0 0 0 0 0 0 0 0 0 0 0 0 0 0 0 0 0 0 0 0 0 0 0 0 0 0 0 0 0 0 0 
99 100 98 217 215 219 225 222 227 209 202 200 209 206 210 237 235 241 235 234 236 235 234 236 235 234 236 235 234 236 235 234 236 235 234 236 228 227 228 131 132 131 0 0 0 0 0 0 0 0 0 0 0 0 0 0 0 0 0 0 0 0 0 0 0 0 51 52 50 58 49 19 199 159 51 204 162 46 204 162 46 214 170 45 228 188 56 236 195 59 236 195 59 232 196 73 232 199 88 232 199 88 232 196 73 228 188 56 228 188 56 210 173 54 217 180 56 206 178 58 58 49 19 6 9 6 6 9 6 0 0 0 0 0 0 0 0 0 83 84 83 0 0 0 0 0 0 0 0 0 0 0 0 0 0 0 0 0 0 0 0 0 0 0 0 0 0 0 0 0 0 0 0 0 0 0 0 0 0 0 0 0 0 0 0 0 0 0 0 0 0 0 0 0 0 0 0 0 0 0 0 
43 44 43 196 196 197 237 235 241 225 222 227 219 218 220 225 222 227 235 234 236 233 230 235 187 188 186 230 228 234 233 230 235 233 230 235 233 230 235 196 196 197 28 29 26 0 0 0 0 0 0 0 0 0 0 0 0 0 0 0 0 0 0 0 0 0 75 76 74 80 73 51 183 155 60 204 162 46 214 170 45 217 180 56 228 188 56 232 196 73 232 196 73 232 199 88 232 199 88 232 199 88 232 196 73 216 182 70 183 155 60 210 173 54 228 188 56 199 166 56 31 24 6 0 0 0 24 25 22 24 25 22 6 9 6 0 0 0 83 84 83 0 0 0 0 0 0 0 0 0 0 0 0 0 0 0 0 0 0 0 0 0 0 0 0 0 0 0 0 0 0 0 0 0 0 0 0 0 0 0 0 0 0 0 0 0 0 0 0 0 0 0 0 0 0 0 0 0 0 0 0 
35 36 34 138 139 138 233 230 235 228 227 228 233 230 235 237 235 241 237 235 241 228 227 228 196 196 197 212 212 212 217 215 219 196 196 197 230 228 234 225 222 227 121 122 120 0 0 0 0 0 0 0 0 0 0 0 0 0 0 0 0 0 0 0 0 0 91 92 91 8 7 6 138 117 41 166 140 51 210 173 54 217 180 56 226 190 67 232 196 73 232 199 88 232 199 88 232 199 88 198 170 75 183 155 60 199 166 56 228 188 56 228 188 56 217 180 56 147 131 79 0 0 0 6 9 6 59 60 59 79 80 79 51 52 50 11 13 10 75 76 74 40 41 37 0 0 0 0 0 0 0 0 0 0 0 0 0 0 0 0 0 0 0 0 0 0 0 0 0 0 0 0 0 0 0 0 0 0 0 0 0 0 0 0 0 0 0 0 0 0 0 0 0 0 0 0 0 0 0 0 0 
40 41 37 73 74 69 212 212 212 237 235 241 237 235 241 237 235 241 235 234 236 228 227 228 228 227 228 225 222 227 217 215 219 179 179 179 230 228 234 235 234 236 179 179 179 8 10 6 0 0 0 0 0 0 0 0 0 0 0 0 0 0 0 0 0 0 40 41 37 24 25 22 89 89 85 167 151 103 166 140 51 183 155 60 198 170 75 198 170 75 198 170 75 183 155 60 166 140 51 188 163 56 206 178 58 217 180 56 217 180 56 204 177 108 200 190 172 176 177 175 14 17 14 8 10 6 63 65 63 103 104 102 99 100 98 59 60 59 8 10 6 83 84 83 0 0 0 0 0 0 0 0 0 0 0 0 0 0 0 0 0 0 0 0 0 0 0 0 0 0 0 0 0 0 0 0 0 0 0 0 0 0 0 0 0 0 0 0 0 0 0 0 0 0 0 0 0 0 0 0 0 
40 41 37 0 0 0 166 167 166 235 234 236 235 234 236 233 230 235 219 218 220 216 218 215 228 227 228 204 204 204 174 173 177 225 222 227 233 230 235 235 234 236 217 215 219 91 92 91 0 0 0 0 0 0 0 0 0 0 0 0 0 0 0 0 0 0 51 52 50 28 29 26 121 122 120 176 176 175 184 164 111 199 166 56 198 170 75 198 170 75 199 166 56 206 178 58 216 182 70 206 178 58 199 166 56 205 172 82 191 176 140 200 199 201 216 218 215 200 199 201 87 88 86 0 0 0 33 33 30 83 84 83 99 100 98 59 60 59 6 9 6 67 68 67 47 48 47 0 0 0 0 0 0 0 0 0 0 0 0 0 0 0 0 0 0 0 0 0 0 0 0 0 0 0 0 0 0 0 0 0 0 0 0 0 0 0 0 0 0 0 0 0 0 0 0 0 0 0 0 0 0 
43 44 43 0 0 0 103 104 102 214 212 218 237 235 241 237 235 241 216 218 215 200 199 201 228 227 228 217 215 219 179 179 179 230 228 234 233 230 235 235 234 236 233 230 235 155 155 154 0 0 0 0 0 0 0 0 0 0 0 0 0 0 0 0 0 0 91 92 91 0 0 0 135 133 125 200 199 201 199 196 189 184 164 111 216 182 70 232 196 73 231 193 58 226 190 67 206 178 58 199 166 56 196 172 102 199 196 189 217 215 219 228 227 228 233 235 231 230 232 229 176 177 175 0 0 0 6 9 6 47 48 47 67 68 67 28 29 26 0 0 0 0 0 0 87 88 86 0 0 0 0 0 0 0 0 0 0 0 0 0 0 0 0 0 0 0 0 0 0 0 0 0 0 0 0 0 0 0 0 0 0 0 0 0 0 0 0 0 0 0 0 0 0 0 0 0 0 0 0 0 0 
43 44 43 0 0 0 11 13 10 179 179 179 235 234 236 237 235 241 235 234 236 235 234 236 228 227 228 209 202 200 204 204 204 233 230 235 235 234 236 235 234 236 235 234 236 209 206 210 73 74 69 0 0 0 0 0 0 0 0 0 0 0 0 43 44 43 67 68 67 0 0 0 148 149 147 215 217 213 208 209 207 196 196 197 191 176 140 205 172 82 205 172 82 205 172 82 204 177 108 206 194 170 216 218 215 222 225 221 233 235 231 246 249 245 248 250 247 248 250 247 235 234 236 91 92 91 0 0 0 0 0 0 0 0 0 0 0 0 0 0 0 0 0 0 51 52 50 75 76 74 0 0 0 0 0 0 0 0 0 0 0 0 0 0 0 0 0 0 0 0 0 0 0 0 0 0 0 0 0 0 0 0 0 0 0 0 0 0 0 0 0 0 0 0 0 0 0 0 0 0 0 
43 44 43 0 0 0 0 0 0 131 132 131 219 218 220 237 235 241 235 234 236 235 234 236 235 234 236 233 230 235 233 230 235 233 231 240 233 230 235 233 230 235 235 234 236 230 228 234 135 136 135 0 0 0 0 0 0 0 0 0 8 7 6 89 89 85 0 0 0 0 0 0 183 182 184 238 241 237 228 227 228 212 212 212 204 204 204 204 204 204 204 204 204 208 209 207 215 217 213 216 218 215 228 227 228 238 241 237 248 250 247 252 254 251 252 254 251 252 254 251 246 249 245 191 193 190 0 0 0 0 0 0 0 0 0 0 0 0 0 0 0 0 0 0 0 0 0 83 84 83 24 25 22 0 0 0 0 0 0 0 0 0 0 0 0 0 0 0 0 0 0 0 0 0 0 0 0 0 0 0 0 0 0 0 0 0 0 0 0 0 0 0 0 0 0 0 0 0 0 0 0 
51 52 50 0 0 0 0 0 0 47 48 47 200 199 201 237 235 241 235 234 236 235 234 236 235 234 236 235 234 236 230 228 234 214 212 218 221 219 226 230 228 234 233 231 240 233 231 240 196 196 197 56 56 53 0 0 0 0 0 0 83 84 83 35 36 34 0 0 0 75 76 74 233 235 231 248 250 247 246 249 245 230 232 229 212 212 212 215 217 213 216 218 215 219 218 220 224 227 223 233 235 231 246 249 245 252 254 251 252 254 251 252 254 251 252 254 251 252 254 251 252 254 251 246 249 245 83 83 77 0 0 0 0 0 0 0 0 0 0 0 0 0 0 0 0 0 0 8 10 6 91 92 91 0 0 0 0 0 0 0 0 0 0 0 0 0 0 0 0 0 0 0 0 0 0 0 0 0 0 0 0 0 0 0 0 0 0 0 0 0 0 0 0 0 0 0 0 0 0 0 0 
51 52 50 0 0 0 0 0 0 0 0 0 155 155 154 228 227 228 237 235 241 235 234 236 235 234 236 230 228 234 154 157 197 173 177 212 195 199 226 211 211 225 230 228 234 235 234 236 228 227 228 121 122 120 0 0 0 59 60 59 67 68 67 0 0 0 35 36 34 219 218 220 252 254 251 252 254 251 252 254 251 246 249 245 222 225 221 212 212 212 215 217 213 228 227 228 238 241 237 248 250 247 252 254 251 252 254 251 252 254 251 252 254 251 252 254 251 252 254 251 252 254 251 252 254 251 179 179 179 0 0 0 0 0 0 0 0 0 0 0 0 0 0 0 0 0 0 0 0 0 67 68 67 75 76 74 0 0 0 0 0 0 0 0 0 0 0 0 0 0 0 0 0 0 0 0 0 0 0 0 0 0 0 0 0 0 0 0 0 0 0 0 0 0 0 0 0 0 0 0 0 
51 52 50 0 0 0 0 0 0 0 0 0 67 66 60 196 196 197 233 231 240 237 235 241 237 235 241 211 211 225 154 157 197 173 177 212 195 199 226 201 203 218 230 228 234 233 230 235 233 230 235 179 179 179 28 29 26 83 84 83 0 0 0 0 0 0 171 171 173 252 254 251 252 254 251 252 254 251 252 254 251 252 254 251 246 249 245 238 241 237 238 241 237 243 245 242 252 254 251 252 254 251 252 254 251 252 254 251 252 254 251 252 254 251 252 254 251 252 254 251 252 254 251 252 254 251 235 234 236 35 36 34 0 0 0 0 0 0 0 0 0 0 0 0 0 0 0 0 0 0 0 0 0 83 84 83 20 21 19 0 0 0 0 0 0 0 0 0 0 0 0 0 0 0 0 0 0 0 0 0 0 0 0 0 0 0 0 0 0 0 0 0 0 0 0 0 0 0 0 0 0 
51 52 50 0 0 0 0 0 0 0 0 0 0 0 0 131 132 131 233 230 235 237 235 241 237 235 241 230 228 234 154 157 197 154 157 197 173 177 212 221 219 226 233 230 235 235 234 236 233 230 235 219 218 220 131 132 131 14 17 14 0 0 0 59 60 59 238 241 237 252 254 251 252 254 251 252 254 251 248 250 247 252 254 251 252 254 251 252 254 251 252 254 251 248 250 247 248 250 247 252 254 251 252 254 251 252 254 251 252 254 251 252 254 251 252 254 251 252 254 251 252 254 251 252 254 251 252 254 251 135 136 135 0 0 0 0 0 0 0 0 0 0 0 0 0 0 0 0 0 0 0 0 0 6 9 6 87 88 86 0 0 0 0 0 0 0 0 0 0 0 0 0 0 0 0 0 0 0 0 0 0 0 0 0 0 0 0 0 0 0 0 0 0 0 0 0 0 0 0 0 0 
35 36 34 0 0 0 0 0 0 0 0 0 0 0 0 56 56 53 212 212 212 237 235 241 237 235 241 237 235 241 230 228 234 208 207 222 225 222 227 233 230 235 235 234 236 235 234 236 233 230 235 233 230 235 145 143 147 0 0 0 0 0 0 158 160 158 252 254 251 252 254 251 252 254 251 252 254 251 252 254 251 252 254 251 252 254 251 252 254 251 252 254 251 252 254 251 252 254 251 252 254 251 252 254 251 252 254 251 252 254 251 252 254 251 252 254 251 252 254 251 252 254 251 252 254 251 252 254 251 200 199 201 0 0 0 0 0 0 0 0 0 0 0 0 0 0 0 0 0 0 0 0 0 0 0 0 47 48 47 79 80 79 0 0 0 0 0 0 0 0 0 0 0 0 0 0 0 0 0 0 0 0 0 0 0 0 0 0 0 0 0 0 0 0 0 0 0 0 0 0 0 
0 0 0 0 0 0 0 0 0 0 0 0 0 0 0 0 0 0 155 155 154 233 231 240 237 235 241 237 235 241 235 234 236 235 234 236 235 234 236 235 234 236 235 234 236 233 230 235 233 230 235 235 234 236 196 196 197 0 0 0 0 0 0 199 196 189 243 245 242 252 254 251 252 254 251 252 254 251 252 254 251 243 245 242 238 241 237 230 232 229 243 245 242 248 250 247 252 254 251 252 254 251 252 254 251 252 254 251 252 254 251 252 254 251 252 254 251 248 250 247 248 250 247 246 249 245 252 254 251 238 241 237 31 33 30 0 0 0 0 0 0 0 0 0 0 0 0 0 0 0 0 0 0 0 0 0 0 0 0 67 68 67 51 52 50 0 0 0 0 0 0 0 0 0 0 0 0 0 0 0 0 0 0 0 0 0 0 0 0 0 0 0 0 0 0 0 0 0 0 0 0 
0 0 0 0 0 0 0 0 0 0 0 0 0 0 0 0 0 0 87 88 86 217 215 219 237 235 241 237 235 241 235 234 236 235 234 236 235 234 236 235 234 236 235 234 236 233 230 235 233 230 235 235 234 236 233 230 235 108 109 107 67 68 67 187 188 186 216 218 215 243 245 242 248 250 247 252 254 251 248 250 247 238 241 237 219 218 220 204 204 204 228 227 228 243 245 242 252 254 251 252 254 251 252 254 251 252 254 251 248 250 247 233 235 231 230 232 229 222 225 221 222 225 221 216 218 215 230 232 229 248 250 247 126 128 126 0 0 0 0 0 0 6 9 6 0 0 0 0 0 0 0 0 0 0 0 0 0 0 0 0 0 0 91 92 91 0 0 0 0 0 0 0 0 0 0 0 0 0 0 0 0 0 0 0 0 0 0 0 0 0 0 0 0 0 0 0 0 0 0 0 0 
0 0 0 0 0 0 0 0 0 0 0 0 0 0 0 0 0 0 0 0 0 171 171 173 235 234 236 237 235 241 237 235 241 237 235 241 235 234 236 235 234 236 235 234 236 235 234 236 233 230 235 228 227 228 219 218 220 192 191 194 121 122 120 187 188 186 208 209 207 230 232 229 243 245 242 248 250 247 252 254 251 248 250 247 230 232 229 224 227 223 246 249 245 252 254 251 252 254 251 252 254 251 252 254 251 252 254 251 252 254 251 240 242 239 228 227 228 216 218 215 216 218 215 215 217 213 215 217 213 233 235 231 212 212 212 11 13 10 0 0 0 43 44 43 28 29 26 0 0 0 0 0 0 0 0 0 0 0 0 0 0 0 20 21 19 83 84 83 0 0 0 0 0 0 0 0 0 0 0 0 0 0 0 0 0 0 0 0 0 0 0 0 0 0 0 0 0 0 0 0 0 
0 0 0 0 0 0 0 0 0 0 0 0 0 0 0 0 0 0 0 0 0 108 109 107 228 227 228 237 235 241 237 235 241 235 234 236 235 234 236 233 230 235 225 222 227 233 230 235 225 222 227 214 212 218 200 199 201 221 219 226 166 167 166 215 217 213 233 235 231 243 245 242 248 250 247 252 254 251 252 254 251 252 254 251 243 245 242 243 245 242 252 254 251 252 254 251 252 254 251 252 254 251 252 254 251 252 254 251 252 254 251 252 254 251 252 254 251 246 249 245 235 234 236 228 227 228 216 218 215 215 217 213 235 234 236 138 139 138 0 0 0 31 33 30 67 68 67 35 36 34 0 0 0 0 0 0 0 0 0 0 0 0 0 0 0 75 76 74 51 52 50 0 0 0 0 0 0 0 0 0 0 0 0 0 0 0 0 0 0 0 0 0 0 0 0 0 0 0 0 0 0 
0 0 0 0 0 0 0 0 0 0 0 0 0 0 0 0 0 0 0 0 0 8 7 6 196 196 197 237 235 241 237 235 241 237 235 241 237 235 241 214 212 218 174 191 229 208 207 222 233 230 235 217 215 219 225 222 227 233 230 235 200 199 201 243 245 242 252 254 251 252 254 251 252 254 251 252 254 251 252 254 251 252 254 251 252 254 251 252 254 251 252 254 251 252 254 251 252 254 251 252 254 251 252 254 251 252 254 251 252 254 251 252 254 251 252 254 251 252 254 251 252 254 251 246 249 245 233 235 231 219 218 220 222 225 221 216 218 215 35 36 34 0 0 0 20 21 19 47 48 47 28 29 26 0 0 0 0 0 0 0 0 0 0 0 0 6 9 6 87 88 86 0 0 0 0 0 0 0 0 0 0 0 0 0 0 0 0 0 0 0 0 0 0 0 0 0 0 0 0 0 0 
0 0 0 0 0 0 0 0 0 0 0 0 0 0 0 0 0 0 0 0 0 0 0 0 131 132 131 233 230 235 235 234 236 221 219 226 206 204 210 221 219 226 201 203 218 217 215 219 230 228 234 230 228 234 230 228 234 233 230 235 219 218 220 230 232 229 252 254 251 252 254 251 252 254 251 252 254 251 252 254 251 252 254 251 252 254 251 252 254 251 252 254 251 252 254 251 252 254 251 252 254 251 252 254 251 252 254 251 252 254 251 252 254 251 252 254 251 252 254 251 252 254 251 252 254 251 248 250 247 238 241 237 222 225 221 228 227 228 148 149 147 0 0 0 0 0 0 11 13 10 43 44 43 24 25 22 0 0 0 0 0 0 0 0 0 0 0 0 75 76 74 28 29 26 0 0 0 0 0 0 0 0 0 0 0 0 0 0 0 0 0 0 0 0 0 0 0 0 0 0 0 
0 0 0 0 0 0 0 0 0 0 0 0 0 0 0 0 0 0 0 0 0 0 0 0 51 52 50 204 204 204 233 230 235 221 219 226 214 212 218 233 231 240 221 219 226 214 212 218 230 228 234 233 230 235 235 234 236 233 230 235 233 230 235 204 204 204 252 254 251 252 254 251 252 254 251 252 254 251 252 254 251 252 254 251 252 254 251 252 254 251 252 254 251 252 254 251 252 254 251 252 254 251 252 254 251 252 254 251 252 254 251 252 254 251 252 254 251 252 254 251 252 254 251 252 254 251 252 254 251 248 250 247 235 234 236 238 241 237 222 225 221 14 17 14 0 0 0 31 33 30 35 36 34 40 41 37 6 9 6 0 0 0 0 0 0 0 0 0 24 25 22 83 84 83 0 0 0 0 0 0 0 0 0 0 0 0 0 0 0 0 0 0 0 0 0 0 0 0 0 0 0 
0 0 0 0 0 0 0 0 0 0 0 0 0 0 0 0 0 0 0 0 0 0 0 0 0 0 0 155 155 154 233 230 235 233 230 235 235 234 236 235 234 236 233 230 235 233 230 235 230 228 234 233 230 235 233 230 235 235 234 236 233 230 235 214 212 218 238 241 237 252 254 251 252 254 251 252 254 251 252 254 251 252 254 251 252 254 251 252 254 251 252 254 251 252 254 251 252 254 251 252 254 251 252 254 251 252 254 251 252 254 251 252 254 251 252 254 251 252 254 251 252 254 251 252 254 251 252 254 251 252 254 251 248 250 247 243 245 242 248 250 247 108 109 107 20 21 19 73 74 69 51 52 50 35 36 34 35 36 34 0 0 0 0 0 0 0 0 0 0 0 0 83 84 83 0 0 0 0 0 0 0 0 0 0 0 0 0 0 0 0 0 0 0 0 0 0 0 0 0 0 0 
0 0 0 0 0 0 0 0 0 0 0 0 0 0 0 0 0 0 0 0 0 0 0 0 0 0 0 75 76 74 217 215 219 235 234 236 235 234 236 235 234 236 233 230 235 228 227 228 221 219 226 221 219 226 230 228 234 230 228 234 230 228 234 228 227 228 212 212 212 252 254 251 252 254 251 252 254 251 252 254 251 248 250 247 252 254 251 252 254 251 252 254 251 252 254 251 252 254 251 252 254 251 252 254 251 252 254 251 252 254 251 252 254 251 252 254 251 252 254 251 252 254 251 252 254 251 252 254 251 252 254 251 252 254 251 252 254 251 252 254 251 176 177 175 8 10 6 43 44 43 24 25 22 8 10 6 51 52 50 8 10 6 0 0 0 0 0 0 0 0 0 67 68 67 43 44 43 0 0 0 0 0 0 0 0 0 0 0 0 0 0 0 0 0 0 0 0 0 0 0 0 
0 0 0 0 0 0 0 0 0 0 0 0 0 0 0 0 0 0 0 0 0 0 0 0 0 0 0 0 0 0 166 167 166 233 230 235 235 234 236 235 234 236 233 230 235 221 219 226 212 212 212 214 212 218 230 228 234 230 228 234 230 228 234 230 228 234 204 204 204 246 249 245 252 254 251 252 254 251 252 254 251 235 234 236 248 250 247 252 254 251 252 254 251 252 254 251 252 254 251 252 254 251 252 254 251 252 254 251 252 254 251 252 254 251 252 254 251 252 254 251 252 254 251 252 254 251 252 254 251 252 254 251 252 254 251 252 254 251 252 254 251 212 212 212 0 0 0 0 0 0 0 0 0 0 0 0 43 44 43 33 33 30 0 0 0 0 0 0 0 0 0 6 9 6 67 68 67 0 0 0 0 0 0 0 0 0 0 0 0 0 0 0 0 0 0 0 0 0 0 0 0 
0 0 0 0 0 0 0 0 0 0 0 0 0 0 0 0 0 0 0 0 0 0 0 0 0 0 0 0 0 0 103 104 102 219 218 220 235 234 236 235 234 236 235 234 236 230 228 234 209 206 210 206 204 210 221 219 226 230 228 234 230 228 234 228 227 228 221 219 226 216 218 215 252 254 251 252 254 251 252 254 251 230 232 229 252 254 251 252 254 251 252 254 251 252 254 251 252 254 251 252 254 251 252 254 251 252 254 251 252 254 251 252 254 251 252 254 251 252 254 251 252 254 251 252 254 251 252 254 251 252 254 251 252 254 251 252 254 251 252 254 251 235 234 236 11 13 10 0 0 0 0 0 0 0 0 0 20 21 19 43 44 43 0 0 0 0 0 0 0 0 0 0 0 0 73 74 69 0 0 0 0 0 0 0 0 0 0 0 0 0 0 0 0 0 0 0 0 0 0 0 0 
0 0 0 0 0 0 0 0 0 0 0 0 0 0 0 0 0 0 0 0 0 0 0 0 0 0 0 0 0 0 0 0 0 187 188 186 233 230 235 233 230 235 233 230 235 233 230 235 217 215 219 219 218 220 217 215 219 228 227 228 225 222 227 225 222 227 225 222 227 200 199 201 248 250 247 252 254 251 252 254 251 230 232 229 252 254 251 252 254 251 252 254 251 252 254 251 252 254 251 252 254 251 252 254 251 252 254 251 252 254 251 252 254 251 252 254 251 252 254 251 252 254 251 252 254 251 252 254 251 252 254 251 252 254 251 252 254 251 252 254 251 246 249 245 51 52 50 0 0 0 0 0 0 0 0 0 11 13 10 51 52 50 0 0 0 0 0 0 0 0 0 0 0 0 67 68 67 51 52 50 0 0 0 0 0 0 0 0 0 0 0 0 0 0 0 0 0 0 0 0 0 
0 0 0 0 0 0 0 0 0 0 0 0 0 0 0 0 0 0 0 0 0 0 0 0 0 0 0 0 0 0 0 0 0 131 132 131 225 222 227 230 228 234 230 228 234 230 228 234 230 228 234 219 218 220 225 222 227 225 222 227 225 222 227 225 222 227 221 219 226 214 212 218 228 227 228 252 254 251 248 250 247 230 232 229 252 254 251 252 254 251 252 254 251 252 254 251 252 254 251 252 254 251 252 254 251 252 254 251 252 254 251 252 254 251 252 254 251 252 254 251 252 254 251 252 254 251 252 254 251 252 254 251 252 254 251 252 254 251 252 254 251 252 254 251 75 76 74 0 0 0 0 0 0 0 0 0 11 13 10 51 52 50 0 0 0 0 0 0 0 0 0 0 0 0 14 17 14 73 74 69 0 0 0 0 0 0 0 0 0 0 0 0 0 0 0 0 0 0 0 0 0 
0 0 0 0 0 0 0 0 0 0 0 0 0 0 0 0 0 0 0 0 0 0 0 0 0 0 0 0 0 0 0 0 0 89 89 85 183 182 184 230 228 234 230 228 234 230 228 234 230 228 234 228 227 228 225 222 227 225 222 227 225 222 227 221 219 226 221 219 226 219 218 220 200 199 201 252 254 251 246 249 245 228 227 228 252 254 251 252 254 251 252 254 251 252 254 251 252 254 251 252 254 251 252 254 251 252 254 251 252 254 251 252 254 251 252 254 251 252 254 251 252 254 251 252 254 251 252 254 251 252 254 251 252 254 251 252 254 251 252 254 251 252 254 251 91 92 91 0 0 0 0 0 0 0 0 0 20 21 19 35 36 34 0 0 0 0 0 0 0 0 0 0 0 0 0 0 0 83 84 83 0 0 0 0 0 0 0 0 0 0 0 0 0 0 0 0 0 0 0 0 0 
0 0 0 0 0 0 0 0 0 0 0 0 0 0 0 0 0 0 0 0 0 0 0 0 0 0 0 0 0 0 83 84 83 14 17 14 121 122 120 225 222 227 230 228 234 230 228 234 228 227 228 228 227 228 225 222 227 214 212 218 209 206 210 219 218 220 219 218 220 219 218 220 206 204 210 233 235 231 243 245 242 224 227 223 248 250 247 252 254 251 252 254 251 252 254 251 252 254 251 252 254 251 252 254 251 252 254 251 252 254 251 252 254 251 252 254 251 252 254 251 252 254 251 252 254 251 252 254 251 252 254 251 252 254 251 252 254 251 252 254 251 252 254 251 108 109 107 0 0 0 0 0 0 0 0 0 33 33 30 28 29 26 0 0 0 0 0 0 0 0 0 0 0 0 0 0 0 51 52 50 0 0 0 0 0 0 0 0 0 0 0 0 0 0 0 0 0 0 0 0 0 
0 0 0 0 0 0 0 0 0 0 0 0 0 0 0 0 0 0 0 0 0 0 0 0 0 0 0 59 60 59 67 68 67 0 0 0 35 36 34 200 199 201 230 228 234 230 228 234 230 228 234 230 228 234 219 218 220 214 212 218 183 182 184 206 204 210 217 215 219 219 218 220 219 218 220 204 204 204 243 245 242 228 227 228 252 254 251 252 254 251 252 254 251 252 254 251 252 254 251 252 254 251 252 254 251 252 254 251 252 254 251 252 254 251 252 254 251 252 254 251 252 254 251 252 254 251 252 254 251 252 254 251 252 254 251 252 254 251 252 254 251 252 254 251 121 122 120 0 0 0 0 0 0 0 0 0 40 41 37 20 21 19 0 0 0 0 0 0 0 0 0 0 0 0 0 0 0 99 100 98 0 0 0 0 0 0 0 0 0 0 0 0 0 0 0 0 0 0 0 0 0 
0 0 0 0 0 0 0 0 0 0 0 0 0 0 0 0 0 0 0 0 0 0 0 0 0 0 0 91 92 91 0 0 0 0 0 0 8 10 6 145 143 147 225 222 227 228 227 228 228 227 228 230 228 234 217 215 219 217 215 219 179 179 179 214 212 218 217 215 219 219 218 220 219 218 220 200 199 201 233 235 231 228 227 228 252 254 251 252 254 251 252 254 251 252 254 251 252 254 251 252 254 251 252 254 251 252 254 251 252 254 251 252 254 251 252 254 251 252 254 251 252 254 251 252 254 251 252 254 251 252 254 251 252 254 251 252 254 251 252 254 251 252 254 251 131 132 131 0 0 0 0 0 0 11 13 10 43 44 43 11 13 10 0 0 0 0 0 0 0 0 0 0 0 0 0 0 0 83 84 83 0 0 0 0 0 0 0 0 0 0 0 0 0 0 0 0 0 0 0 0 0 
0 0 0 0 0 0 0 0 0 0 0 0 0 0 0 0 0 0 0 0 0 0 0 0 0 0 0 103 104 102 0 0 0 0 0 0 0 0 0 83 84 83 212 212 212 225 222 227 228 227 228 228 227 228 225 222 227 214 212 218 217 215 219 217 215 219 217 215 219 217 215 219 217 215 219 214 212 218 204 204 204 230 232 229 252 254 251 252 254 251 252 254 251 252 254 251 252 254 251 252 254 251 252 254 251 252 254 251 252 254 251 252 254 251 252 254 251 252 254 251 252 254 251 252 254 251 252 254 251 252 254 251 252 254 251 252 254 251 252 254 251 252 254 251 138 139 138 0 0 0 0 0 0 35 36 34 28 29 26 0 0 0 0 0 0 0 0 0 0 0 0 0 0 0 0 0 0 87 88 86 0 0 0 0 0 0 0 0 0 0 0 0 0 0 0 0 0 0 0 0 0 
0 0 0 0 0 0 0 0 0 0 0 0 0 0 0 0 0 0 0 0 0 0 0 0 0 0 0 99 100 98 0 0 0 0 0 0 8 7 6 20 21 19 166 167 166 225 222 227 228 227 228 228 227 228 225 222 227 225 222 227 217 215 219 206 204 210 204 204 204 217 215 219 217 215 219 217 215 219 196 196 197 230 232 229 252 254 251 252 254 251 252 254 251 252 254 251 252 254 251 252 254 251 252 254 251 252 254 251 252 254 251 252 254 251 252 254 251 252 254 251 252 254 251 252 254 251 252 254 251 252 254 251 252 254 251 252 254 251 252 254 251 252 254 251 108 109 107 11 13 10 35 36 34 35 36 34 28 29 26 40 41 37 35 36 34 20 21 19 0 0 0 0 0 0 0 0 0 99 100 98 0 0 0 0 0 0 0 0 0 0 0 0 0 0 0 0 0 0 0 0 0 
0 0 0 0 0 0 0 0 0 0 0 0 0 0 0 0 0 0 0 0 0 0 0 0 0 0 0 67 68 67 80 73 51 170 138 14 205 165 9 162 132 18 67 66 60 217 215 219 228 227 228 225 222 227 225 222 227 225 222 227 217 215 219 206 204 210 171 171 173 214 212 218 217 215 219 217 215 219 212 212 212 212 212 212 252 254 251 252 254 251 252 254 251 252 254 251 252 254 251 252 254 251 252 254 251 252 254 251 252 254 251 252 254 251 252 254 251 252 254 251 252 254 251 252 254 251 252 254 251 252 254 251 252 254 251 252 254 251 252 254 251 243 245 242 56 56 53 40 41 37 16 18 15 11 13 10 16 18 15 28 29 26 43 44 43 59 60 59 59 60 59 28 29 26 0 0 0 67 66 60 0 0 0 0 0 0 0 0 0 0 0 0 0 0 0 0 0 0 0 0 0 
0 0 0 0 0 0 0 0 0 0 0 0 0 0 0 0 0 0 0 0 0 0 0 0 0 0 0 108 103 84 216 182 70 225 180 8 225 180 8 222 177 5 178 145 19 176 176 175 225 222 227 225 222 227 228 227 228 225 222 227 209 206 210 200 199 201 183 182 184 217 215 219 217 215 219 217 215 219 217 215 219 204 204 204 252 254 251 252 254 251 252 254 251 252 254 251 252 254 251 252 254 251 252 254 251 252 254 251 252 254 251 252 254 251 252 254 251 252 254 251 252 254 251 252 254 251 252 254 251 252 254 251 252 254 251 247 238 212 247 238 212 231 216 180 92 76 16 14 17 14 0 0 0 0 0 0 0 0 0 0 0 0 0 0 0 28 29 26 67 68 67 56 56 53 28 29 26 91 92 91 0 0 0 0 0 0 0 0 0 0 0 0 0 0 0 0 0 0 0 0 0 
0 0 0 0 0 0 0 0 0 0 0 0 0 0 0 0 0 0 0 0 0 0 0 0 64 62 51 189 162 87 205 165 9 228 182 2 230 184 3 228 182 2 218 174 4 181 169 140 219 218 220 225 222 227 225 222 227 225 222 227 219 218 220 212 212 212 217 215 219 217 215 219 217 215 219 171 171 173 217 215 219 209 206 210 243 245 242 252 254 251 252 254 251 252 254 251 252 254 251 252 254 251 252 254 251 252 254 251 252 254 251 252 254 251 252 254 251 252 254 251 252 254 251 252 254 251 252 254 251 252 254 251 247 238 212 235 190 28 235 188 3 235 188 3 185 150 12 0 0 0 0 0 0 0 0 0 0 0 0 0 0 0 0 0 0 8 10 6 51 52 50 58 49 19 189 162 87 167 151 103 16 18 15 0 0 0 0 0 0 0 0 0 0 0 0 0 0 0 0 0 0 
0 0 0 0 0 0 0 0 0 0 0 0 0 0 0 0 0 0 0 0 0 0 0 0 168 151 104 178 145 19 205 165 9 222 177 5 228 182 2 228 182 2 222 177 5 216 182 70 206 204 210 225 222 227 225 222 227 225 222 227 219 218 220 214 212 218 217 215 219 171 171 173 217 215 219 217 215 219 217 215 219 217 215 219 219 218 220 252 254 251 252 254 251 252 254 251 252 254 251 252 254 251 252 254 251 252 254 251 252 254 251 252 254 251 252 254 251 252 254 251 252 254 251 252 254 251 252 254 251 252 254 251 231 216 180 235 188 3 235 188 3 230 184 3 170 138 14 0 0 0 0 0 0 0 0 0 0 0 0 0 0 0 0 0 0 6 9 6 11 13 10 170 138 14 228 182 2 231 188 36 98 93 75 0 0 0 0 0 0 0 0 0 0 0 0 0 0 0 0 0 0 
0 0 0 0 0 0 0 0 0 0 0 0 0 0 0 0 0 0 11 13 10 131 123 96 166 140 51 178 145 19 205 165 5 218 174 4 228 182 2 228 182 2 228 182 2 222 177 5 200 190 172 221 219 226 225 222 227 209 206 210 219 218 220 179 179 179 217 215 219 217 215 219 209 206 210 217 215 219 217 215 219 217 215 219 212 212 212 246 249 245 252 254 251 252 254 251 252 254 251 252 254 251 252 254 251 252 254 251 252 254 251 252 254 251 252 254 251 252 254 251 252 254 251 252 254 251 252 254 251 252 254 251 231 216 180 228 182 2 235 188 3 222 177 5 147 121 13 0 0 0 0 0 0 0 0 0 0 0 0 0 0 0 0 0 0 0 0 0 107 88 17 225 180 8 233 187 9 235 190 28 122 116 92 0 0 0 0 0 0 0 0 0 0 0 0 0 0 0 0 0 0 
0 0 0 0 0 0 0 0 0 0 0 0 11 13 10 98 93 75 157 145 106 157 132 56 162 132 18 189 154 12 213 170 5 218 174 4 228 182 2 228 182 2 228 182 2 225 180 8 214 182 89 212 212 212 221 219 226 196 196 197 219 218 220 217 215 219 206 204 210 192 191 194 183 182 184 204 204 204 217 215 219 217 215 219 212 212 212 233 235 231 252 254 251 252 254 251 252 254 251 252 254 251 252 254 251 252 254 251 252 254 251 252 254 251 252 254 251 252 254 251 252 254 251 252 254 251 243 245 242 215 217 213 209 193 153 228 182 2 228 182 2 213 170 5 170 138 14 66 54 11 0 0 0 0 0 0 0 0 0 0 0 0 0 0 0 66 54 11 195 157 9 235 188 3 235 188 3 231 188 36 98 93 75 0 0 0 0 0 0 0 0 0 0 0 0 0 0 0 0 0 0 
0 0 0 68 66 52 157 145 106 167 151 103 196 172 102 173 150 80 162 132 18 162 132 18 185 150 12 205 165 9 218 174 4 222 177 5 228 182 2 228 182 2 228 182 2 228 182 2 222 177 9 206 194 170 219 218 220 219 218 220 219 218 220 209 206 210 171 171 173 174 173 177 200 199 201 212 212 212 217 215 219 214 212 218 192 191 194 246 249 245 252 254 251 252 254 251 252 254 251 252 254 251 252 254 251 252 254 251 252 254 251 252 254 251 252 254 251 252 254 251 252 254 251 252 254 251 219 218 220 191 193 190 202 184 141 222 177 5 228 182 2 218 174 4 180 147 13 133 109 22 92 76 16 58 49 19 58 49 19 66 54 11 107 88 17 170 138 14 222 177 5 235 188 3 235 188 3 230 184 3 167 151 103 0 0 0 0 0 0 0 0 0 0 0 0 0 0 0 0 0 0 
20 21 19 204 177 108 213 170 5 209 167 7 205 165 9 195 157 9 189 154 12 195 157 9 205 165 9 213 170 5 222 177 5 228 182 2 228 182 2 228 182 2 228 182 2 228 182 2 222 177 9 205 172 82 214 212 218 219 218 220 219 218 220 217 215 219 206 204 210 217 215 219 217 215 219 204 204 204 200 199 201 222 225 221 248 250 247 252 254 251 252 254 251 252 254 251 252 254 251 252 254 251 252 254 251 252 254 251 252 254 251 252 254 251 252 254 251 252 254 251 252 254 251 252 254 251 215 217 213 187 188 186 191 176 140 205 165 9 228 182 2 218 174 4 189 154 12 154 126 20 133 109 22 121 101 23 121 101 23 138 115 21 172 140 17 205 165 5 230 184 3 235 188 3 233 187 9 228 182 2 214 182 89 81 78 68 0 0 0 0 0 0 0 0 0 0 0 0 0 0 0 
108 103 84 209 168 24 222 177 5 228 182 2 222 177 5 218 174 4 222 177 9 218 174 4 218 174 4 218 174 4 228 182 2 225 180 8 225 180 8 228 182 2 228 182 2 225 180 8 222 177 9 218 174 4 199 196 189 217 215 219 217 215 219 217 215 219 214 212 218 196 196 197 171 171 173 212 212 212 252 254 251 252 254 251 252 254 251 252 254 251 252 254 251 252 254 251 252 254 251 252 254 251 252 254 251 252 254 251 252 254 251 252 254 251 252 254 251 252 254 251 252 254 251 252 254 251 216 218 215 187 188 186 191 176 140 195 157 9 222 177 5 222 177 5 205 165 5 185 150 12 172 140 17 172 140 17 172 140 17 185 150 12 200 162 8 218 174 4 230 184 3 235 188 3 233 187 9 228 182 2 222 177 5 196 172 102 48 46 36 0 0 0 0 0 0 0 0 0 0 0 0 
122 116 92 209 168 24 218 174 4 228 182 2 228 182 2 228 182 2 222 177 9 222 177 5 225 180 8 228 182 2 228 182 2 228 182 2 228 182 2 228 182 2 228 182 2 225 180 8 218 174 4 218 174 4 204 177 108 209 206 210 209 206 210 179 179 179 131 132 131 67 68 67 35 36 34 155 155 154 246 249 245 252 254 251 252 254 251 252 254 251 252 254 251 252 254 251 252 254 251 252 254 251 252 254 251 252 254 251 252 254 251 252 254 251 252 254 251 252 254 251 252 254 251 252 254 251 228 227 228 191 193 190 191 176 140 195 157 9 213 170 5 222 177 9 222 177 9 213 170 5 200 162 8 200 162 8 200 162 8 205 165 5 218 174 4 228 182 2 233 187 9 233 187 9 230 184 3 228 182 2 228 182 2 222 177 9 196 172 102 64 62 51 0 0 0 0 0 0 0 0 0 
81 78 68 205 172 82 205 165 5 222 177 5 228 182 2 228 182 2 228 182 2 230 184 3 233 187 9 230 184 3 228 182 2 228 182 2 228 182 2 228 182 2 228 182 2 228 182 2 222 177 9 222 177 5 218 174 4 204 177 108 184 164 111 40 35 27 0 0 0 0 0 0 0 0 0 126 128 126 243 245 242 252 254 251 252 254 251 252 254 251 252 254 251 252 254 251 252 254 251 252 254 251 252 254 251 252 254 251 252 254 251 252 254 251 252 254 251 252 254 251 252 254 251 252 254 251 230 232 229 187 188 186 157 145 106 200 162 8 213 170 5 225 180 8 225 180 8 222 177 5 222 177 5 222 177 5 222 177 5 228 182 2 228 182 2 233 187 9 235 188 3 233 187 9 230 184 3 230 184 3 228 182 2 228 182 2 222 177 9 204 177 108 98 93 75 0 0 0 0 0 0 
40 41 37 204 177 108 200 162 8 213 170 5 228 182 2 228 182 2 230 184 3 233 187 9 233 187 9 235 188 3 230 184 3 230 184 3 230 184 3 230 184 3 228 182 2 228 182 2 225 180 8 222 177 5 218 174 4 213 170 5 210 169 10 147 121 13 0 0 0 0 0 0 35 36 34 166 167 166 246 249 245 252 254 251 252 254 251 252 254 251 252 254 251 252 254 251 252 254 251 252 254 251 252 254 251 252 254 251 252 254 251 252 254 251 252 254 251 252 254 251 252 254 251 252 254 251 228 227 228 121 122 120 146 119 20 200 162 8 213 170 5 228 182 2 230 184 3 230 184 3 230 184 3 235 188 3 233 187 9 233 187 9 233 187 9 233 187 9 235 188 3 233 187 9 233 187 9 233 187 9 233 187 9 230 184 3 228 182 2 222 177 5 216 182 70 149 135 93 6 9 6 
40 41 37 196 172 102 189 154 12 209 167 7 228 182 2 228 182 2 230 184 3 233 187 9 235 188 3 235 188 3 233 187 9 230 184 3 230 184 3 230 184 3 228 182 2 228 182 2 228 182 2 228 182 2 222 177 9 218 174 4 213 170 5 205 165 9 108 93 46 121 122 120 187 188 186 238 241 237 252 254 251 252 254 251 252 254 251 252 254 251 252 254 251 252 254 251 252 254 251 252 254 251 252 254 251 252 254 251 252 254 251 252 254 251 252 254 251 252 254 251 252 254 251 240 242 239 138 139 138 14 17 14 158 130 14 200 162 8 213 170 5 228 182 2 233 187 9 233 187 9 235 188 3 235 188 3 235 188 3 233 187 9 233 187 9 235 188 3 233 187 9 233 187 9 233 187 9 233 187 9 233 187 9 235 188 3 235 188 3 230 184 3 222 177 5 217 180 56 131 123 96 
40 35 27 189 162 87 172 140 17 205 165 9 228 182 2 230 184 3 233 187 9 233 187 9 235 188 3 235 188 3 235 188 3 235 188 3 235 188 3 235 188 3 235 188 3 230 184 3 228 182 2 228 182 2 228 182 2 225 180 8 222 177 9 205 165 9 198 170 75 233 235 231 246 249 245 252 254 251 252 254 251 252 254 251 252 254 251 252 254 251 252 254 251 252 254 251 252 254 251 252 254 251 252 254 251 252 254 251 252 254 251 252 254 251 252 254 251 252 254 251 228 227 228 121 122 120 11 13 10 0 0 0 180 147 13 200 162 8 213 170 5 228 182 2 233 187 9 233 187 9 235 188 3 235 188 3 235 188 3 233 187 9 230 184 3 230 184 3 228 182 2 230 184 3 233 187 9 233 187 9 233 187 9 235 188 3 235 188 3 235 188 3 235 188 3 235 188 3 149 135 93 
28 29 26 173 150 80 172 140 17 205 165 5 228 182 2 233 187 9 233 187 9 235 188 3 235 188 3 235 188 3 235 188 3 235 188 3 235 188 3 235 188 3 235 188 3 235 188 3 235 188 3 228 182 2 230 184 3 228 182 2 228 182 2 213 170 5 205 165 9 202 184 141 240 242 239 252 254 251 252 254 251 252 254 251 252 254 251 252 254 251 252 254 251 252 254 251 252 254 251 252 254 251 252 254 251 252 254 251 252 254 251 252 254 251 246 249 245 196 196 197 73 74 69 6 9 6 0 0 0 31 24 6 189 154 12 200 162 8 218 174 4 228 182 2 233 187 9 233 187 9 235 188 3 235 188 3 230 184 3 230 184 3 228 182 2 228 182 2 228 182 2 228 182 2 228 182 2 230 184 3 230 184 3 230 184 3 235 188 3 235 188 3 235 188 3 232 199 88 68 66 52 
83 83 77 166 140 51 180 147 13 205 165 5 225 180 8 228 182 2 230 184 3 233 187 9 233 187 9 235 188 3 235 188 3 235 188 3 235 188 3 235 188 3 235 188 3 235 188 3 233 187 9 230 184 3 233 187 9 233 187 9 228 182 2 218 174 4 209 167 7 189 154 12 181 169 140 233 235 231 252 254 251 252 254 251 252 254 251 252 254 251 252 254 251 252 254 251 252 254 251 252 254 251 248 250 247 246 249 245 238 241 237 204 204 204 121 122 120 20 21 19 0 0 0 0 0 0 0 0 0 66 54 11 189 155 7 205 165 5 222 177 5 230 184 3 233 187 9 235 188 3 235 188 3 230 184 3 228 182 2 228 182 2 228 182 2 228 182 2 228 182 2 228 182 2 228 182 2 228 182 2 228 182 2 228 182 2 228 182 2 225 180 8 214 182 89 108 103 84 0 0 0 
131 123 96 171 141 24 185 150 12 205 165 9 213 170 5 218 174 4 222 177 5 228 182 2 230 184 3 230 184 3 233 187 9 235 188 3 233 187 9 233 187 9 235 188 3 235 188 3 233 187 9 230 184 3 233 187 9 233 187 9 230 184 3 228 182 2 213 170 5 189 154 12 154 126 20 91 92 91 176 177 175 216 218 215 230 232 229 233 235 231 235 234 236 233 235 231 228 227 228 215 217 213 191 193 190 158 160 158 95 96 95 35 36 34 14 17 14 0 0 0 0 0 0 0 0 0 0 0 0 92 76 16 189 154 12 205 165 5 228 182 2 230 184 3 233 187 9 235 188 3 228 182 2 225 180 8 228 182 2 228 182 2 222 177 9 218 174 4 218 174 4 213 170 5 213 170 5 213 170 5 213 170 5 210 169 10 214 182 89 168 151 104 52 51 45 0 0 0 0 0 0 
157 145 106 180 147 13 185 150 12 189 155 7 189 154 12 195 157 9 209 167 7 218 174 4 228 182 2 228 182 2 228 182 2 230 184 3 230 184 3 230 184 3 233 187 9 230 184 3 230 184 3 230 184 3 233 187 9 230 184 3 230 184 3 228 182 2 209 167 7 185 150 12 157 129 19 92 76 16 20 21 19 47 48 47 83 84 83 99 100 98 99 100 98 83 84 83 67 68 67 43 44 43 31 33 30 20 21 19 11 13 10 0 0 0 0 0 0 0 0 0 0 0 0 0 0 0 0 0 0 107 88 17 185 150 12 213 170 5 228 182 2 230 184 3 233 187 9 228 182 2 225 180 8 225 180 8 225 180 8 218 174 4 213 170 5 210 169 10 210 169 10 205 165 5 205 165 5 205 165 9 205 172 82 167 151 103 67 66 60 0 0 0 0 0 0 0 0 0 0 0 0 
140 131 104 178 145 19 180 147 13 185 150 12 180 147 13 180 147 13 180 147 13 189 154 12 195 157 9 200 162 8 205 165 5 209 167 7 213 170 5 222 177 5 228 182 2 228 182 2 228 182 2 230 184 3 233 187 9 230 184 3 228 182 2 222 177 5 205 165 5 180 147 13 157 129 19 107 88 22 0 0 0 0 0 0 0 0 0 0 0 0 0 0 0 0 0 0 0 0 0 0 0 0 0 0 0 0 0 0 0 0 0 0 0 0 0 0 0 0 0 0 0 0 0 0 0 0 0 0 0 107 88 17 180 147 13 205 165 5 228 182 2 228 182 2 228 182 2 228 182 2 222 177 9 222 177 5 218 174 4 210 169 10 210 169 10 210 169 10 205 165 5 205 165 5 205 172 82 168 151 104 56 56 53 0 0 0 0 0 0 0 0 0 0 0 0 0 0 0 0 0 0 
40 41 37 184 164 111 198 170 75 172 140 17 162 132 18 157 129 19 162 132 18 162 132 18 162 132 18 162 132 18 172 140 17 176 143 15 180 147 13 195 157 9 205 165 5 218 174 4 228 182 2 228 182 2 228 182 2 228 182 2 228 182 2 218 174 4 195 157 9 180 147 13 154 126 20 107 88 22 0 0 0 0 0 0 0 0 0 0 0 0 0 0 0 0 0 0 0 0 0 0 0 0 0 0 0 0 0 0 0 0 0 0 0 0 0 0 0 0 0 0 0 0 0 0 0 0 0 0 0 107 88 17 170 138 14 205 165 9 222 177 5 228 182 2 228 182 2 228 182 2 222 177 5 218 174 4 213 170 5 210 169 10 210 169 10 205 165 5 209 168 24 196 172 102 122 116 92 0 0 0 0 0 0 0 0 0 0 0 0 0 0 0 0 0 0 0 0 0 0 0 0 
0 0 0 0 0 0 80 73 51 131 123 96 149 135 93 167 151 103 173 150 80 162 132 18 154 126 20 154 126 20 154 126 20 157 129 19 162 132 18 162 132 18 180 147 13 189 154 12 200 162 8 205 165 5 213 170 5 218 174 4 213 170 5 195 157 9 185 150 12 172 140 17 146 119 20 107 88 22 0 0 0 0 0 0 11 13 10 51 52 50 75 76 74 91 92 91 99 100 98 87 88 86 51 52 50 79 80 79 99 100 98 99 100 98 87 88 86 73 74 69 43 44 43 8 10 6 0 0 0 107 88 22 162 132 18 195 157 9 213 170 5 222 177 5 225 180 8 222 177 9 218 174 4 213 170 5 210 169 10 205 165 5 205 165 5 204 162 46 168 151 104 28 29 26 0 0 0 0 0 0 0 0 0 0 0 0 0 0 0 0 0 0 0 0 0 0 0 0 0 0 0 
0 0 0 0 0 0 0 0 0 0 0 0 0 0 0 8 7 6 92 89 77 133 123 89 157 145 106 167 151 103 157 132 56 148 122 21 146 119 20 148 122 21 148 122 21 157 129 19 170 138 14 176 143 15 185 150 12 185 150 12 180 147 13 180 147 13 172 140 17 162 132 18 133 109 22 69 60 29 87 88 86 83 84 83 91 92 91 35 36 34 40 41 37 43 44 43 51 52 50 40 41 37 6 9 6 35 36 34 51 52 50 51 52 50 43 44 43 35 36 34 35 36 34 91 92 91 83 83 77 122 116 92 146 119 20 180 147 13 195 157 9 205 165 5 213 170 5 213 170 5 209 167 7 205 165 5 200 162 8 195 157 9 183 155 60 149 137 100 11 13 10 0 0 0 0 0 0 0 0 0 0 0 0 0 0 0 0 0 0 0 0 0 0 0 0 0 0 0 0 0 0 
0 0 0 0 0 0 0 0 0 0 0 0 0 0 0 0 0 0 0 0 0 0 0 0 0 0 0 28 29 26 81 78 68 131 123 96 168 151 104 173 150 80 138 117 41 138 115 21 138 115 21 148 122 21 148 122 21 157 129 19 162 132 18 157 129 19 148 122 21 133 109 22 140 131 104 67 66 60 20 21 19 0 0 0 0 0 0 0 0 0 0 0 0 0 0 0 0 0 0 0 0 0 0 0 0 0 0 0 0 0 0 0 0 0 0 0 0 0 0 0 0 0 0 0 0 0 0 0 0 123 118 101 119 102 34 148 122 21 172 140 17 180 147 13 189 154 12 185 150 12 185 150 12 185 150 12 180 147 13 183 155 60 140 131 104 0 0 0 0 0 0 0 0 0 0 0 0 0 0 0 0 0 0 0 0 0 0 0 0 0 0 0 0 0 0 0 0 0 0 0 0 
0 0 0 0 0 0 0 0 0 0 0 0 0 0 0 0 0 0 0 0 0 0 0 0 0 0 0 0 0 0 0 0 0 0 0 0 0 0 0 28 29 26 122 116 92 149 137 100 147 131 79 138 115 21 138 115 21 138 115 21 138 115 21 133 109 22 121 101 23 133 123 89 83 83 77 0 0 0 0 0 0 0 0 0 0 0 0 0 0 0 0 0 0 0 0 0 0 0 0 0 0 0 0 0 0 0 0 0 0 0 0 0 0 0 0 0 0 0 0 0 0 0 0 0 0 0 0 0 0 33 33 30 140 131 104 119 102 34 138 115 21 148 122 21 157 129 19 154 126 20 154 126 20 157 129 19 173 150 80 122 116 92 0 0 0 0 0 0 0 0 0 0 0 0 0 0 0 0 0 0 0 0 0 0 0 0 0 0 0 0 0 0 0 0 0 0 0 0 0 0 0 
0 0 0 0 0 0 0 0 0 0 0 0 0 0 0 0 0 0 0 0 0 0 0 0 0 0 0 0 0 0 0 0 0 0 0 0 0 0 0 0 0 0 0 0 0 0 0 0 83 83 77 140 131 104 149 135 93 149 135 93 133 123 89 140 131 104 123 118 101 56 56 53 0 0 0 0 0 0 0 0 0 0 0 0 0 0 0 0 0 0 0 0 0 0 0 0 0 0 0 0 0 0 0 0 0 0 0 0 0 0 0 0 0 0 0 0 0 0 0 0 0 0 0 0 0 0 0 0 0 0 0 0 33 33 30 123 118 101 140 131 104 133 123 89 133 123 89 149 137 100 147 131 79 149 137 100 81 78 68 0 0 0 0 0 0 0 0 0 0 0 0 0 0 0 0 0 0 0 0 0 0 0 0 0 0 0 0 0 0 0 0 0 0 0 0 0 0 0 0 0 0 
0 0 0 0 0 0 0 0 0 0 0 0 0 0 0 0 0 0 0 0 0 0 0 0 0 0 0 0 0 0 0 0 0 0 0 0 0 0 0 0 0 0 0 0 0 0 0 0 0 0 0 0 0 0 8 7 6 33 33 30 28 29 26 24 25 22 0 0 0 0 0 0 0 0 0 0 0 0 0 0 0 0 0 0 0 0 0 0 0 0 0 0 0 0 0 0 0 0 0 0 0 0 0 0 0 0 0 0 0 0 0 0 0 0 0 0 0 0 0 0 0 0 0 0 0 0 0 0 0 0 0 0 0 0 0 0 0 0 24 25 22 28 29 26 28 29 26 33 33 30 0 0 0 0 0 0 0 0 0 0 0 0 0 0 0 0 0 0 0 0 0 0 0 0 0 0 0 0 0 0 0 0 0 0 0 0 0 0 0 0 0 0 0 0 0 0 0 0 0 0 0 
